<svg xmlns="http://www.w3.org/2000/svg" viewBox="0 0 64 64">
  <!-- Full square bg — fills Google's circular clip with no corner gaps -->
  <rect width="64" height="64" fill="#0c0a09"/>
  <!-- Apple body filled — reads at 16px -->
  <path d="M32 25 C 29 20, 11 20, 11 34 C 11 46, 19 57, 28 57 C 30 57, 31 55, 32 55 C 33 55, 34 57, 36 57 C 45 57, 53 46, 53 34 C 53 20, 35 20, 32 25 Z"
        fill="#f0ebe3"/>
  <!-- Stem -->
  <path d="M32 25 C 32 18, 36 13, 41 11"
        fill="none" stroke="#f0ebe3" stroke-width="2.4" stroke-linecap="round"/>
  <!-- Leaf filled -->
  <path d="M33 21 C 36 15, 46 14, 45 19 C 44 23, 35 22, 33 21 Z"
        fill="#7aab45"/>
</svg>
